<svg width="36" height="36" viewBox="0 0 36 36" fill="none" xmlns="http://www.w3.org/2000/svg">
<circle cx="18" cy="18" r="18" fill="#EDEDED"/>
<path d="M11.8043 23.2016L11.8315 22.4521C11.5376 22.4414 11.2646 22.6035 11.1332 22.8666C11.0019 23.1297 11.0364 23.4453 11.2216 23.6738L11.8043 23.2016ZM18.4028 10.0054L18.43 9.25586C18.1362 9.24519 17.8632 9.40725 17.7318 9.67036C17.6005 9.93347 17.635 10.2491 17.8201 10.4775L18.4028 10.0054ZM12.1035 23.957C16.9932 23.957 20.9571 19.9932 20.9571 15.1035H19.4571C19.4571 19.1647 16.1648 22.457 12.1035 22.457V23.957ZM11.7771 23.9511C11.8854 23.955 11.9943 23.957 12.1035 23.957V22.457C12.0124 22.457 11.9217 22.4554 11.8315 22.4521L11.7771 23.9511ZM11.2216 23.6738C12.8435 25.6754 15.3241 26.957 18.1035 26.957V25.457C15.7956 25.457 13.7364 24.3947 12.387 22.7294L11.2216 23.6738ZM18.1035 26.957C22.9932 26.957 26.9571 22.9932 26.9571 18.1035H25.4571C25.4571 22.1647 22.1648 25.457 18.1035 25.457V26.957ZM26.9571 18.1035C26.9571 13.3231 23.1687 9.4279 18.43 9.25586L18.3756 10.7549C22.3106 10.8977 25.4571 14.1333 25.4571 18.1035H26.9571ZM20.9571 15.1035C20.9571 12.9936 20.2181 11.0543 18.9855 9.53318L17.8201 10.4775C18.8441 11.7413 19.4571 13.3498 19.4571 15.1035H20.9571Z" fill="#808080"/>
<path d="M18.1035 26.2071C22.579 26.2071 26.2071 22.579 26.2071 18.1035C26.2071 13.6281 22.579 10 18.1035 10C13.6281 10 10 13.6281 10 18.1035C10 22.579 13.6281 26.2071 18.1035 26.2071Z" stroke="#808080" stroke-width="1.5" stroke-linecap="round" stroke-linejoin="round" stroke-dasharray="3 5"/>
</svg>
